HIERARCHY
ROOT root
{
	OFFSET 0.000000 0.000000 0.000000
	CHANNELS 6 Xposition Yposition Zposition Zrotation Yrotation Xrotation
	JOINT lhip
	{
		OFFSET 0.058581 -0.082280 -0.017664
		CHANNELS 3 Zrotation Yrotation Xrotation
		JOINT lknee
		{
			OFFSET 0.043451 -0.386469 0.008037
			CHANNELS 3 Zrotation Yrotation Xrotation
			JOINT lankle
			{
				OFFSET -0.014790 -0.426874 -0.037428
				CHANNELS 3 Zrotation Yrotation Xrotation
				JOINT ltoe
				{
					OFFSET 0.041054 -0.060286 0.122042
					CHANNELS 3 Zrotation Yrotation Xrotation
					End Site
					{
						OFFSET 0.000000 0.000000 0.000000
					}
				}
			}
		}
	}
	JOINT rhip
	{
		OFFSET -0.060310 -0.090513 -0.013543
		CHANNELS 3 Zrotation Yrotation Xrotation
		JOINT rknee
		{
			OFFSET -0.043257 -0.383688 -0.004843
			CHANNELS 3 Zrotation Yrotation Xrotation
			JOINT rankle
			{
				OFFSET 0.019056 -0.420046 -0.034562
				CHANNELS 3 Zrotation Yrotation Xrotation
				JOINT rtoe
				{
					OFFSET -0.034840 -0.062106 0.130323
					CHANNELS 3 Zrotation Yrotation Xrotation
					End Site
					{
						OFFSET 0.000000 0.000000 0.000000
					}
				}
			}
		}
	}
	JOINT lowerback
	{
		OFFSET 0.004439 0.124404 -0.038385
		CHANNELS 3 Zrotation Yrotation Xrotation
		JOINT upperback
		{
			OFFSET 0.004488 0.137956 0.026820
			CHANNELS 3 Zrotation Yrotation Xrotation
			JOINT chest
			{
				OFFSET -0.002265 0.056032 0.002855
				CHANNELS 3 Zrotation Yrotation Xrotation
				JOINT lowerneck
				{
					OFFSET -0.013390 0.211636 -0.033468
					CHANNELS 3 Zrotation Yrotation Xrotation
					JOINT upperneck
					{
						OFFSET 0.010113 0.088937 0.050410
						CHANNELS 3 Zrotation Yrotation Xrotation
						End Site
						{
							OFFSET 0.000000 0.000000 0.000000
						}
					}
				}
				JOINT lclavicle
				{
					OFFSET 0.071702 0.114000 -0.018898
					CHANNELS 3 Zrotation Yrotation Xrotation
					JOINT lshoulder
					{
						OFFSET 0.122921 0.045205 -0.019046
						CHANNELS 3 Zrotation Yrotation Xrotation
						JOINT lelbow
						{
							OFFSET 0.255332 -0.015649 -0.022946
							CHANNELS 3 Zrotation Yrotation Xrotation
							JOINT lwrist
							{
								OFFSET 0.265709 0.012698 -0.007375
								CHANNELS 3 Zrotation Yrotation Xrotation
								End Site
								{
									OFFSET 0.000000 0.000000 0.000000
								}
							}
						}
					}
				}
				JOINT rclavicle
				{
					OFFSET -0.082954 0.112472 -0.023707
					CHANNELS 3 Zrotation Yrotation Xrotation
					JOINT rshoulder
					{
						OFFSET -0.113228 0.046853 -0.008472
						CHANNELS 3 Zrotation Yrotation Xrotation
						JOINT relbow
						{
							OFFSET -0.260127 -0.014369 -0.031269
							CHANNELS 3 Zrotation Yrotation Xrotation
							JOINT rwrist
							{
								OFFSET -0.269108 0.006794 -0.006027
								CHANNELS 3 Zrotation Yrotation Xrotation
								End Site
								{
									OFFSET 0.000000 0.000000 0.000000
								}
							}
						}
					}
				}
			}
		}
	}
}
MOTION
Frames: 9
Frame Time: 0.033333
1.146825 1.172486 0.993782 -86.905075 2.117469 84.808844 -0.017745 -0.203052 8.800701 -2.848911 -15.627926 2.950214 5.176189 7.418692 -16.190694 0.000000 -0.000000 0.000000 3.602540 -2.559222 9.040374 4.162313 3.403666 4.381609 2.215713 -4.370194 -9.920384 0.000000 -0.000000 0.000000 -2.254916 1.531006 3.084193 1.582258 -2.743951 4.580250 1.465675 -2.243753 5.864496 3.835042 1.431002 -3.015240 2.356718 -1.864560 0.690038 -25.627153 8.211743 1.826292 -61.470650 -4.121110 6.360982 10.194094 -26.219584 5.721337 -2.762688 -0.906401 -9.506607 24.328197 -5.960757 -0.149549 60.089912 0.699672 9.645316 -14.711122 24.556412 -3.774444 7.237899 -0.840890 -8.999387 
1.148013 1.172875 0.993702 -86.875558 2.159981 85.129007 0.068196 -0.450509 8.321273 -2.937579 -15.409360 3.086509 5.054919 7.353982 -16.200456 0.000000 -0.000000 0.000000 3.695989 -2.575793 8.566848 4.198168 3.329438 4.386143 2.429244 -4.627691 -9.866246 0.000000 -0.000000 0.000000 -2.311370 1.499141 2.844839 1.564321 -2.744981 4.438289 1.458651 -2.282784 6.058007 3.812068 1.731752 -3.593041 2.414144 -1.824012 0.865721 -25.361873 8.182993 1.666427 -61.661326 -4.547369 6.762844 10.440314 -27.289378 5.778247 -2.593521 -1.117120 -9.836107 24.411305 -6.065765 -0.300152 60.194601 0.726786 9.919758 -14.793605 24.868708 -3.836178 7.225148 -0.629597 -9.245406 
1.148699 1.172968 0.993742 -86.923479 2.209224 85.126604 0.148686 -0.402179 8.292836 -2.970364 -15.383173 3.051624 5.166528 7.321982 -16.171357 0.000000 -0.000000 0.000000 3.713558 -2.800548 8.462722 4.224855 3.401000 4.447868 2.374171 -4.504234 -10.002682 0.000000 -0.000000 0.000000 -2.360757 1.523384 2.877206 1.610058 -2.798037 4.394522 1.505063 -2.293576 6.040179 3.771752 1.609916 -3.117348 2.462924 -1.878316 0.821329 -25.098191 8.019990 1.645908 -61.745292 -4.978145 6.915753 10.303042 -28.135599 6.152475 -2.594137 -1.177161 -10.494031 24.162312 -6.007652 -0.125698 60.533734 0.802140 9.864226 -14.942193 24.997865 -3.739408 7.222653 -0.635485 -9.496521 
1.149475 1.173590 0.993537 -87.342703 2.262726 85.186342 0.230339 -0.393192 8.413192 -2.899631 -15.160079 2.700507 5.179320 7.398265 -16.063238 0.000000 -0.000000 0.000000 3.813054 -2.473934 8.251569 4.219375 3.360593 4.553931 2.515733 -4.466640 -9.809254 0.000000 -0.000000 0.000000 -2.417858 1.520722 2.654927 1.664837 -2.618832 4.631941 1.530468 -2.217322 5.989719 3.802231 1.667804 -3.246794 2.489526 -1.861687 1.177172 -24.999013 7.852331 1.682544 -61.864579 -5.236997 7.080460 10.684103 -29.386344 5.549137 -2.576878 -1.271013 -10.477401 24.193704 -5.917030 -0.116810 60.521560 0.943300 9.964651 -14.943003 25.512274 -3.904378 7.473358 -0.332324 -9.526420 
1.150550 1.173067 0.993705 -87.131745 2.198622 85.160945 0.067302 -0.482251 8.218854 -2.891578 -15.065372 2.991590 5.204424 7.282162 -16.059487 0.000000 -0.000000 0.000000 3.531081 -2.755863 8.314616 4.396646 3.338811 4.362129 2.600180 -4.236641 -9.698612 0.000000 -0.000000 0.000000 -2.368727 1.496673 2.924330 1.594104 -2.814701 4.494945 1.503853 -2.252092 5.843708 3.684902 1.883677 -2.980204 2.490778 -1.725915 1.321465 -25.013753 7.749669 1.662233 -61.798563 -5.462198 7.092289 10.781173 -29.717131 5.496367 -2.630777 -1.166073 -10.413528 24.203756 -5.784074 0.001050 60.541012 0.983258 9.970542 -15.059836 25.737586 -3.972081 7.352665 -0.479616 -9.396156 
1.149375 1.170979 0.993671 -87.320170 2.215548 84.955921 -0.184032 0.056973 8.603838 -2.521410 -15.227841 2.734464 5.061335 7.241480 -15.771428 0.000000 -0.000000 0.000000 3.162360 -3.124245 8.534742 4.626367 3.479767 4.412706 2.489836 -3.591211 -9.965570 0.000000 -0.000000 0.000000 -1.863107 1.443064 2.762657 1.413964 -2.828367 4.722869 1.227969 -2.237184 5.855619 3.697429 1.603875 -2.706366 2.456081 -1.918273 1.168161 -25.010425 7.629232 1.569176 -61.695112 -5.524549 7.039149 10.718735 -30.112302 5.554641 -2.281042 -1.256294 -10.617602 24.042467 -5.661062 0.144349 60.558390 0.991704 9.813664 -14.926342 26.072671 -3.889783 7.104299 -0.529619 -9.377886 
1.149910 1.174773 0.993623 -87.996396 2.384369 85.154269 0.522289 -0.074093 8.681994 -2.916288 -15.006892 2.228592 5.176936 7.406293 -16.002528 0.000000 -0.000000 0.000000 3.996724 -2.623257 8.020993 4.229254 3.482193 4.839071 2.323490 -4.201352 -10.094017 0.000000 -0.000000 0.000000 -2.515965 1.572133 2.365413 1.764202 -2.462549 4.775029 1.552603 -2.127663 6.026203 3.789764 1.639643 -2.743182 2.479788 -1.959010 1.541552 -24.711680 7.633362 1.724087 -61.812196 -5.758176 7.143993 10.896507 -30.493061 5.416378 -2.184720 -1.344328 -10.892877 24.104821 -5.715035 0.131196 60.726861 1.134801 10.096391 -15.139777 26.545361 -3.806581 7.315026 0.037957 -9.747606 
1.150430 1.175031 0.993716 -87.947557 2.412771 85.004167 0.547433 -0.004200 8.841438 -2.839688 -15.170220 2.156371 5.015983 7.409157 -15.799494 0.000000 -0.000000 0.000000 4.025284 -2.708467 8.177297 4.213179 3.481271 4.720810 2.398522 -4.124767 -10.019239 0.000000 -0.000000 0.000000 -2.446503 1.475238 2.600453 1.685839 -2.503347 4.762305 1.505035 -2.158030 6.141087 3.701575 1.860129 -2.928132 2.629291 -1.905824 1.625057 -24.587813 7.646079 1.531357 -61.847710 -5.803524 7.167695 10.876167 -30.474378 5.469225 -1.861636 -1.451894 -10.833340 24.085185 -5.797537 -0.216449 60.836177 1.230708 10.104209 -14.830518 26.504437 -3.620047 7.399312 0.255194 -9.766975 
1.151665 1.175257 0.993743 -87.852063 2.366758 85.103274 0.501624 -0.219594 8.614619 -2.887500 -15.072804 2.195753 5.076903 7.438160 -15.806221 0.000000 -0.000000 0.000000 4.021555 -2.466635 8.011839 4.262696 3.337760 4.660508 2.359320 -4.340187 -9.986908 0.000000 -0.000000 0.000000 -2.503212 1.442044 2.640746 1.705465 -2.578650 4.711988 1.470088 -2.215241 6.149639 3.817213 1.603287 -3.031151 2.612831 -2.224638 1.749853 -24.690076 7.627667 1.574700 -61.704416 -5.891853 7.186904 10.927358 -30.324995 5.308503 -2.134488 -1.364924 -10.788596 24.013818 -5.747554 -0.269402 61.035337 1.164543 10.262188 -15.118526 26.585401 -3.697045 7.086191 -0.367175 -9.811971 
